<mxfile host="app.diagrams.net" modified="2023-07-10T15:04:25.148Z" agent="Mozilla/5.0 (Windows NT 10.0; Win64; x64; rv:109.0) Gecko/20100101 Firefox/115.0" version="21.3.8" etag="wsebgM8mtFzvFB9L9cCK" type="github">
  <diagram name="Page-1" id="eJvrxHALv5gZABVibUgl">
    <mxGraphModel>
      <root>
        <mxCell id="0" />
        <mxCell id="1" parent="0" />
      </root>
    </mxGraphModel>
  </diagram>
</mxfile>
